<mxfile host="app.diagrams.net" modified="2024-07-11T02:16:42.679Z" agent="Mozilla/5.0 (Macintosh; Intel Mac OS X 10_15_7) AppleWebKit/537.36 (KHTML, like Gecko) Chrome/119.0.0.0 Safari/537.36" etag="ldChDajwhxW6V1WWDMJM" version="24.6.4" type="github">
  <diagram name="ページ1" id="HuWoRlB6NViFV-N2TUxw">
    <mxGraphModel dx="1189" dy="894" grid="1" gridSize="10" guides="1" tooltips="1" connect="1" arrows="1" fold="1" page="1" pageScale="1" pageWidth="1169" pageHeight="827" math="0" shadow="0">
      <root>
        <mxCell id="0" />
        <mxCell id="1" parent="0" />
        <mxCell id="vfO6iKDOlkKke8TdpdNu-12" value="AWS Cloud" style="sketch=0;outlineConnect=0;gradientColor=none;html=1;whiteSpace=wrap;fontSize=12;fontStyle=0;shape=mxgraph.aws4.group;grIcon=mxgraph.aws4.group_aws_cloud;strokeColor=#AAB7B8;fillColor=none;verticalAlign=top;align=left;spacingLeft=30;fontColor=#AAB7B8;dashed=0;" vertex="1" parent="1">
          <mxGeometry x="200" y="70" width="860" height="610" as="geometry" />
        </mxCell>
        <mxCell id="vfO6iKDOlkKke8TdpdNu-1" value="" style="sketch=0;points=[[0,0,0],[0.25,0,0],[0.5,0,0],[0.75,0,0],[1,0,0],[0,1,0],[0.25,1,0],[0.5,1,0],[0.75,1,0],[1,1,0],[0,0.25,0],[0,0.5,0],[0,0.75,0],[1,0.25,0],[1,0.5,0],[1,0.75,0]];outlineConnect=0;fontColor=#232F3E;fillColor=#7AA116;strokeColor=#ffffff;dashed=0;verticalLabelPosition=bottom;verticalAlign=top;align=center;html=1;fontSize=12;fontStyle=0;aspect=fixed;shape=mxgraph.aws4.resourceIcon;resIcon=mxgraph.aws4.s3;" vertex="1" parent="1">
          <mxGeometry x="758" y="121" width="78" height="78" as="geometry" />
        </mxCell>
        <mxCell id="vfO6iKDOlkKke8TdpdNu-2" value="" style="sketch=0;points=[[0,0,0],[0.25,0,0],[0.5,0,0],[0.75,0,0],[1,0,0],[0,1,0],[0.25,1,0],[0.5,1,0],[0.75,1,0],[1,1,0],[0,0.25,0],[0,0.5,0],[0,0.75,0],[1,0.25,0],[1,0.5,0],[1,0.75,0]];outlineConnect=0;fontColor=#232F3E;fillColor=#8C4FFF;strokeColor=#ffffff;dashed=0;verticalLabelPosition=bottom;verticalAlign=top;align=center;html=1;fontSize=12;fontStyle=0;aspect=fixed;shape=mxgraph.aws4.resourceIcon;resIcon=mxgraph.aws4.route_53;" vertex="1" parent="1">
          <mxGeometry x="280" y="139" width="78" height="78" as="geometry" />
        </mxCell>
        <mxCell id="vfO6iKDOlkKke8TdpdNu-3" value="" style="sketch=0;points=[[0,0,0],[0.25,0,0],[0.5,0,0],[0.75,0,0],[1,0,0],[0,1,0],[0.25,1,0],[0.5,1,0],[0.75,1,0],[1,1,0],[0,0.25,0],[0,0.5,0],[0,0.75,0],[1,0.25,0],[1,0.5,0],[1,0.75,0]];outlineConnect=0;fontColor=#232F3E;fillColor=#8C4FFF;strokeColor=#ffffff;dashed=0;verticalLabelPosition=bottom;verticalAlign=top;align=center;html=1;fontSize=12;fontStyle=0;aspect=fixed;shape=mxgraph.aws4.resourceIcon;resIcon=mxgraph.aws4.cloudfront;" vertex="1" parent="1">
          <mxGeometry x="598" y="121" width="78" height="78" as="geometry" />
        </mxCell>
        <mxCell id="vfO6iKDOlkKke8TdpdNu-4" value="" style="sketch=0;points=[[0,0,0],[0.25,0,0],[0.5,0,0],[0.75,0,0],[1,0,0],[0,1,0],[0.25,1,0],[0.5,1,0],[0.75,1,0],[1,1,0],[0,0.25,0],[0,0.5,0],[0,0.75,0],[1,0.25,0],[1,0.5,0],[1,0.75,0]];outlineConnect=0;fontColor=#232F3E;fillColor=#E7157B;strokeColor=#ffffff;dashed=0;verticalLabelPosition=bottom;verticalAlign=top;align=center;html=1;fontSize=12;fontStyle=0;aspect=fixed;shape=mxgraph.aws4.resourceIcon;resIcon=mxgraph.aws4.api_gateway;" vertex="1" parent="1">
          <mxGeometry x="442" y="319" width="78" height="78" as="geometry" />
        </mxCell>
        <mxCell id="vfO6iKDOlkKke8TdpdNu-5" value="" style="sketch=0;points=[[0,0,0],[0.25,0,0],[0.5,0,0],[0.75,0,0],[1,0,0],[0,1,0],[0.25,1,0],[0.5,1,0],[0.75,1,0],[1,1,0],[0,0.25,0],[0,0.5,0],[0,0.75,0],[1,0.25,0],[1,0.5,0],[1,0.75,0]];outlineConnect=0;fontColor=#232F3E;fillColor=#E7157B;strokeColor=#ffffff;dashed=0;verticalLabelPosition=bottom;verticalAlign=top;align=center;html=1;fontSize=12;fontStyle=0;aspect=fixed;shape=mxgraph.aws4.resourceIcon;resIcon=mxgraph.aws4.sqs;" vertex="1" parent="1">
          <mxGeometry x="598" y="317" width="82" height="82" as="geometry" />
        </mxCell>
        <mxCell id="vfO6iKDOlkKke8TdpdNu-6" value="" style="sketch=0;points=[[0,0,0],[0.25,0,0],[0.5,0,0],[0.75,0,0],[1,0,0],[0,1,0],[0.25,1,0],[0.5,1,0],[0.75,1,0],[1,1,0],[0,0.25,0],[0,0.5,0],[0,0.75,0],[1,0.25,0],[1,0.5,0],[1,0.75,0]];outlineConnect=0;fontColor=#232F3E;fillColor=#ED7100;strokeColor=#ffffff;dashed=0;verticalLabelPosition=bottom;verticalAlign=top;align=center;html=1;fontSize=12;fontStyle=0;aspect=fixed;shape=mxgraph.aws4.resourceIcon;resIcon=mxgraph.aws4.lambda;" vertex="1" parent="1">
          <mxGeometry x="758" y="319" width="78" height="78" as="geometry" />
        </mxCell>
        <mxCell id="vfO6iKDOlkKke8TdpdNu-7" value="" style="sketch=0;points=[[0,0,0],[0.25,0,0],[0.5,0,0],[0.75,0,0],[1,0,0],[0,1,0],[0.25,1,0],[0.5,1,0],[0.75,1,0],[1,1,0],[0,0.25,0],[0,0.5,0],[0,0.75,0],[1,0.25,0],[1,0.5,0],[1,0.75,0]];outlineConnect=0;fontColor=#232F3E;fillColor=#C925D1;strokeColor=#ffffff;dashed=0;verticalLabelPosition=bottom;verticalAlign=top;align=center;html=1;fontSize=12;fontStyle=0;aspect=fixed;shape=mxgraph.aws4.resourceIcon;resIcon=mxgraph.aws4.dynamodb;" vertex="1" parent="1">
          <mxGeometry x="920" y="315.5" width="85" height="85" as="geometry" />
        </mxCell>
        <mxCell id="vfO6iKDOlkKke8TdpdNu-8" value="" style="sketch=0;points=[[0,0,0],[0.25,0,0],[0.5,0,0],[0.75,0,0],[1,0,0],[0,1,0],[0.25,1,0],[0.5,1,0],[0.75,1,0],[1,1,0],[0,0.25,0],[0,0.5,0],[0,0.75,0],[1,0.25,0],[1,0.5,0],[1,0.75,0]];outlineConnect=0;fontColor=#232F3E;fillColor=#DD344C;strokeColor=#ffffff;dashed=0;verticalLabelPosition=bottom;verticalAlign=top;align=center;html=1;fontSize=12;fontStyle=0;aspect=fixed;shape=mxgraph.aws4.resourceIcon;resIcon=mxgraph.aws4.waf;" vertex="1" parent="1">
          <mxGeometry x="280" y="319" width="78" height="78" as="geometry" />
        </mxCell>
        <mxCell id="vfO6iKDOlkKke8TdpdNu-9" value="" style="sketch=0;points=[[0,0,0],[0.25,0,0],[0.5,0,0],[0.75,0,0],[1,0,0],[0,1,0],[0.25,1,0],[0.5,1,0],[0.75,1,0],[1,1,0],[0,0.25,0],[0,0.5,0],[0,0.75,0],[1,0.25,0],[1,0.5,0],[1,0.75,0]];outlineConnect=0;fontColor=#232F3E;fillColor=#DD344C;strokeColor=#ffffff;dashed=0;verticalLabelPosition=bottom;verticalAlign=top;align=center;html=1;fontSize=12;fontStyle=0;aspect=fixed;shape=mxgraph.aws4.resourceIcon;resIcon=mxgraph.aws4.amplify;" vertex="1" parent="1">
          <mxGeometry x="598" y="519" width="78" height="78" as="geometry" />
        </mxCell>
        <mxCell id="vfO6iKDOlkKke8TdpdNu-10" value="" style="sketch=0;points=[[0,0,0],[0.25,0,0],[0.5,0,0],[0.75,0,0],[1,0,0],[0,1,0],[0.25,1,0],[0.5,1,0],[0.75,1,0],[1,1,0],[0,0.25,0],[0,0.5,0],[0,0.75,0],[1,0.25,0],[1,0.5,0],[1,0.75,0]];points=[[0,0,0],[0.25,0,0],[0.5,0,0],[0.75,0,0],[1,0,0],[0,1,0],[0.25,1,0],[0.5,1,0],[0.75,1,0],[1,1,0],[0,0.25,0],[0,0.5,0],[0,0.75,0],[1,0.25,0],[1,0.5,0],[1,0.75,0]];outlineConnect=0;fontColor=#232F3E;fillColor=#E7157B;strokeColor=#ffffff;dashed=0;verticalLabelPosition=bottom;verticalAlign=top;align=center;html=1;fontSize=12;fontStyle=0;aspect=fixed;shape=mxgraph.aws4.resourceIcon;resIcon=mxgraph.aws4.cloudwatch_2;" vertex="1" parent="1">
          <mxGeometry x="898" y="519" width="78" height="78" as="geometry" />
        </mxCell>
        <mxCell id="vfO6iKDOlkKke8TdpdNu-19" style="rounded=0;orthogonalLoop=1;jettySize=auto;html=1;exitX=1;exitY=0.5;exitDx=0;exitDy=0;exitPerimeter=0;entryX=0;entryY=0.5;entryDx=0;entryDy=0;entryPerimeter=0;edgeStyle=elbowEdgeStyle;" edge="1" parent="1" source="vfO6iKDOlkKke8TdpdNu-13" target="vfO6iKDOlkKke8TdpdNu-2">
          <mxGeometry relative="1" as="geometry">
            <Array as="points">
              <mxPoint x="240" y="280" />
            </Array>
          </mxGeometry>
        </mxCell>
        <mxCell id="vfO6iKDOlkKke8TdpdNu-13" value="" style="fontColor=#0066CC;verticalAlign=top;verticalLabelPosition=bottom;labelPosition=center;align=center;html=1;outlineConnect=0;fillColor=#CCCCCC;strokeColor=#6881B3;gradientColor=none;gradientDirection=north;strokeWidth=2;shape=mxgraph.networks.pc;" vertex="1" parent="1">
          <mxGeometry x="60" y="323" width="100" height="70" as="geometry" />
        </mxCell>
        <mxCell id="vfO6iKDOlkKke8TdpdNu-21" style="edgeStyle=elbowEdgeStyle;rounded=0;orthogonalLoop=1;jettySize=auto;html=1;exitX=1;exitY=0.5;exitDx=0;exitDy=0;exitPerimeter=0;entryX=0;entryY=0.5;entryDx=0;entryDy=0;entryPerimeter=0;" edge="1" parent="1" source="vfO6iKDOlkKke8TdpdNu-13" target="vfO6iKDOlkKke8TdpdNu-8">
          <mxGeometry relative="1" as="geometry" />
        </mxCell>
        <mxCell id="vfO6iKDOlkKke8TdpdNu-22" style="edgeStyle=elbowEdgeStyle;rounded=0;orthogonalLoop=1;jettySize=auto;html=1;exitX=1;exitY=0.5;exitDx=0;exitDy=0;exitPerimeter=0;entryX=0;entryY=0.5;entryDx=0;entryDy=0;entryPerimeter=0;" edge="1" parent="1" source="vfO6iKDOlkKke8TdpdNu-8" target="vfO6iKDOlkKke8TdpdNu-4">
          <mxGeometry relative="1" as="geometry">
            <mxPoint x="170" y="368" as="sourcePoint" />
            <mxPoint x="290" y="368" as="targetPoint" />
          </mxGeometry>
        </mxCell>
        <mxCell id="vfO6iKDOlkKke8TdpdNu-23" value="端末" style="text;html=1;align=center;verticalAlign=middle;whiteSpace=wrap;rounded=0;" vertex="1" parent="1">
          <mxGeometry x="90" y="400.5" width="60" height="30" as="geometry" />
        </mxCell>
        <mxCell id="vfO6iKDOlkKke8TdpdNu-24" value="&lt;h1 style=&quot;margin-top: 0px;&quot;&gt;Route53&lt;/h1&gt;&lt;p&gt;DNS。名前解決する&lt;/p&gt;" style="text;html=1;whiteSpace=wrap;overflow=hidden;rounded=0;" vertex="1" parent="1">
          <mxGeometry x="358" y="143" width="122" height="70" as="geometry" />
        </mxCell>
        <mxCell id="vfO6iKDOlkKke8TdpdNu-25" value="&lt;h1 style=&quot;margin-top: 0px;&quot;&gt;WAF&lt;/h1&gt;&lt;p&gt;Web FireWall&lt;/p&gt;" style="text;html=1;whiteSpace=wrap;overflow=hidden;rounded=0;" vertex="1" parent="1">
          <mxGeometry x="280" y="400.5" width="110" height="70" as="geometry" />
        </mxCell>
        <mxCell id="vfO6iKDOlkKke8TdpdNu-26" value="&lt;h1 style=&quot;margin-top: 0px;&quot;&gt;&lt;font style=&quot;font-size: 17px;&quot;&gt;API Gateway&lt;/font&gt;&lt;/h1&gt;&lt;p style=&quot;font-size: 12px;&quot;&gt;ルーティング&lt;/p&gt;" style="text;html=1;whiteSpace=wrap;overflow=hidden;rounded=0;fontSize=12;" vertex="1" parent="1">
          <mxGeometry x="442" y="399" width="110" height="70" as="geometry" />
        </mxCell>
        <mxCell id="vfO6iKDOlkKke8TdpdNu-27" value="&lt;h1 style=&quot;margin-top: 0px;&quot;&gt;SQS&lt;/h1&gt;&lt;p&gt;キューで非同期に&lt;/p&gt;" style="text;html=1;whiteSpace=wrap;overflow=hidden;rounded=0;" vertex="1" parent="1">
          <mxGeometry x="600" y="399" width="110" height="70" as="geometry" />
        </mxCell>
        <mxCell id="vfO6iKDOlkKke8TdpdNu-28" value="&lt;h1 style=&quot;margin-top: 0px;&quot;&gt;Amplify&lt;/h1&gt;&lt;p&gt;フロントアプリのホスティング&lt;/p&gt;" style="text;html=1;whiteSpace=wrap;overflow=hidden;rounded=0;" vertex="1" parent="1">
          <mxGeometry x="600" y="597" width="180" height="70" as="geometry" />
        </mxCell>
        <mxCell id="vfO6iKDOlkKke8TdpdNu-29" value="&lt;h1 style=&quot;margin-top: 0px;&quot;&gt;CloudWatch&lt;/h1&gt;&lt;p&gt;ログ監視&lt;/p&gt;" style="text;html=1;whiteSpace=wrap;overflow=hidden;rounded=0;" vertex="1" parent="1">
          <mxGeometry x="898" y="597" width="160" height="70" as="geometry" />
        </mxCell>
        <mxCell id="vfO6iKDOlkKke8TdpdNu-30" value="&lt;h1 style=&quot;margin-top: 0px;&quot;&gt;Lambda&lt;/h1&gt;&lt;p&gt;関数を登録&lt;/p&gt;" style="text;html=1;whiteSpace=wrap;overflow=hidden;rounded=0;" vertex="1" parent="1">
          <mxGeometry x="760" y="399" width="110" height="70" as="geometry" />
        </mxCell>
        <mxCell id="vfO6iKDOlkKke8TdpdNu-31" value="&lt;h1 style=&quot;margin-top: 0px;&quot;&gt;DynamoDB&lt;/h1&gt;&lt;div&gt;NoSQL。JSONで全部つっこむ&lt;/div&gt;" style="text;html=1;whiteSpace=wrap;overflow=hidden;rounded=0;" vertex="1" parent="1">
          <mxGeometry x="920" y="400.5" width="130" height="99.5" as="geometry" />
        </mxCell>
        <mxCell id="vfO6iKDOlkKke8TdpdNu-32" value="&lt;h1 style=&quot;margin-top: 0px;&quot;&gt;CloudFront&lt;/h1&gt;&lt;p&gt;CDN。静的コンテンツ配信&lt;/p&gt;" style="text;html=1;whiteSpace=wrap;overflow=hidden;rounded=0;" vertex="1" parent="1">
          <mxGeometry x="598" y="195" width="162" height="70" as="geometry" />
        </mxCell>
        <mxCell id="vfO6iKDOlkKke8TdpdNu-33" value="&lt;h1 style=&quot;margin-top: 0px;&quot;&gt;S3&lt;/h1&gt;&lt;p&gt;ファイル置き場&lt;/p&gt;" style="text;html=1;whiteSpace=wrap;overflow=hidden;rounded=0;" vertex="1" parent="1">
          <mxGeometry x="758" y="199" width="110" height="70" as="geometry" />
        </mxCell>
        <mxCell id="vfO6iKDOlkKke8TdpdNu-34" style="edgeStyle=elbowEdgeStyle;rounded=0;orthogonalLoop=1;jettySize=auto;html=1;exitX=1;exitY=0.5;exitDx=0;exitDy=0;exitPerimeter=0;entryX=0;entryY=0.5;entryDx=0;entryDy=0;entryPerimeter=0;" edge="1" parent="1" source="vfO6iKDOlkKke8TdpdNu-4" target="vfO6iKDOlkKke8TdpdNu-5">
          <mxGeometry relative="1" as="geometry">
            <mxPoint x="368" y="368" as="sourcePoint" />
            <mxPoint x="452" y="368" as="targetPoint" />
          </mxGeometry>
        </mxCell>
        <mxCell id="vfO6iKDOlkKke8TdpdNu-35" style="edgeStyle=elbowEdgeStyle;rounded=0;orthogonalLoop=1;jettySize=auto;html=1;exitX=1;exitY=0.5;exitDx=0;exitDy=0;exitPerimeter=0;entryX=0;entryY=0.5;entryDx=0;entryDy=0;entryPerimeter=0;" edge="1" parent="1" source="vfO6iKDOlkKke8TdpdNu-4" target="vfO6iKDOlkKke8TdpdNu-3">
          <mxGeometry relative="1" as="geometry">
            <mxPoint x="378" y="378" as="sourcePoint" />
            <mxPoint x="462" y="378" as="targetPoint" />
          </mxGeometry>
        </mxCell>
        <mxCell id="vfO6iKDOlkKke8TdpdNu-36" style="edgeStyle=elbowEdgeStyle;rounded=0;orthogonalLoop=1;jettySize=auto;html=1;exitX=1;exitY=0.5;exitDx=0;exitDy=0;exitPerimeter=0;entryX=0;entryY=0.5;entryDx=0;entryDy=0;entryPerimeter=0;" edge="1" parent="1" source="vfO6iKDOlkKke8TdpdNu-4" target="vfO6iKDOlkKke8TdpdNu-9">
          <mxGeometry relative="1" as="geometry">
            <mxPoint x="530" y="368" as="sourcePoint" />
            <mxPoint x="608" y="170" as="targetPoint" />
          </mxGeometry>
        </mxCell>
        <mxCell id="vfO6iKDOlkKke8TdpdNu-37" style="edgeStyle=elbowEdgeStyle;rounded=0;orthogonalLoop=1;jettySize=auto;html=1;exitX=1;exitY=0.5;exitDx=0;exitDy=0;exitPerimeter=0;entryX=0;entryY=0.5;entryDx=0;entryDy=0;entryPerimeter=0;" edge="1" parent="1" source="vfO6iKDOlkKke8TdpdNu-5" target="vfO6iKDOlkKke8TdpdNu-6">
          <mxGeometry relative="1" as="geometry">
            <mxPoint x="530" y="368" as="sourcePoint" />
            <mxPoint x="608" y="368" as="targetPoint" />
          </mxGeometry>
        </mxCell>
        <mxCell id="vfO6iKDOlkKke8TdpdNu-38" style="edgeStyle=elbowEdgeStyle;rounded=0;orthogonalLoop=1;jettySize=auto;html=1;exitX=1;exitY=0.5;exitDx=0;exitDy=0;exitPerimeter=0;entryX=0;entryY=0.5;entryDx=0;entryDy=0;entryPerimeter=0;" edge="1" parent="1" source="vfO6iKDOlkKke8TdpdNu-6" target="vfO6iKDOlkKke8TdpdNu-7">
          <mxGeometry relative="1" as="geometry">
            <mxPoint x="690" y="368" as="sourcePoint" />
            <mxPoint x="768" y="368" as="targetPoint" />
          </mxGeometry>
        </mxCell>
        <mxCell id="vfO6iKDOlkKke8TdpdNu-39" style="edgeStyle=elbowEdgeStyle;rounded=0;orthogonalLoop=1;jettySize=auto;html=1;exitX=1;exitY=0.5;exitDx=0;exitDy=0;exitPerimeter=0;entryX=0;entryY=0.5;entryDx=0;entryDy=0;entryPerimeter=0;" edge="1" parent="1" source="vfO6iKDOlkKke8TdpdNu-3" target="vfO6iKDOlkKke8TdpdNu-1">
          <mxGeometry relative="1" as="geometry">
            <mxPoint x="690" y="368" as="sourcePoint" />
            <mxPoint x="768" y="368" as="targetPoint" />
          </mxGeometry>
        </mxCell>
        <mxCell id="vfO6iKDOlkKke8TdpdNu-44" style="shape=image;editableCssRules=.*;image=data:image/svg+xml,PHN2ZyB2aWV3Qm94PSIwIDAgMjQgMjQiIHhtbG5zPSJodHRwOi8vd3d3LnczLm9yZy8yMDAwL3N2ZyI+PHN0eWxlPip7ZmlsbDojMTgxNzE3fTwvc3R5bGU+PHBhdGggZD0iTTEyIC4yOTdjLTYuNjMgMC0xMiA1LjM3My0xMiAxMiAwIDUuMzAzIDMuNDM4IDkuOCA4LjIwNSAxMS4zODUuNi4xMTMuODItLjI1OC44Mi0uNTc3IDAtLjI4NS0uMDEtMS4wNC0uMDE1LTIuMDQtMy4zMzguNzI0LTQuMDQyLTEuNjEtNC4wNDItMS42MUM0LjQyMiAxOC4wNyAzLjYzMyAxNy43IDMuNjMzIDE3LjdjLTEuMDg3LS43NDQuMDg0LS43MjkuMDg0LS43MjkgMS4yMDUuMDg0IDEuODM4IDEuMjM2IDEuODM4IDEuMjM2IDEuMDcgMS44MzUgMi44MDkgMS4zMDUgMy40OTUuOTk4LjEwOC0uNzc2LjQxNy0xLjMwNS43Ni0xLjYwNS0yLjY2NS0uMy01LjQ2Ni0xLjMzMi01LjQ2Ni01LjkzIDAtMS4zMS40NjUtMi4zOCAxLjIzNS0zLjIyLS4xMzUtLjMwMy0uNTQtMS41MjMuMTA1LTMuMTc2IDAgMCAxLjAwNS0uMzIyIDMuMyAxLjIzLjk2LS4yNjcgMS45OC0uMzk5IDMtLjQwNSAxLjAyLjAwNiAyLjA0LjEzOCAzIC40MDUgMi4yOC0xLjU1MiAzLjI4NS0xLjIzIDMuMjg1LTEuMjMuNjQ1IDEuNjUzLjI0IDIuODczLjEyIDMuMTc2Ljc2NS44NCAxLjIzIDEuOTEgMS4yMyAzLjIyIDAgNC42MS0yLjgwNSA1LjYyNS01LjQ3NSA1LjkyLjQyLjM2LjgxIDEuMDk2LjgxIDIuMjIgMCAxLjYwNi0uMDE1IDIuODk2LS4wMTUgMy4yODYgMCAuMzE1LjIxLjY5LjgyNS41N0MyMC41NjUgMjIuMDkyIDI0IDE3LjU5MiAyNCAxMi4yOTdjMC02LjYyNy01LjM3My0xMi0xMi0xMiIvPjwvc3ZnPg==;" vertex="1" parent="1">
          <mxGeometry x="677" y="699" width="50" height="50" as="geometry" />
        </mxCell>
        <mxCell id="vfO6iKDOlkKke8TdpdNu-46" value="" style="outlineConnect=0;dashed=0;verticalLabelPosition=bottom;verticalAlign=top;align=center;html=1;shape=mxgraph.aws3.cloud_2;fillColor=#F58534;gradientColor=none;" vertex="1" parent="1">
          <mxGeometry x="836" y="709" width="50" height="50" as="geometry" />
        </mxCell>
        <mxCell id="vfO6iKDOlkKke8TdpdNu-50" style="shape=image;editableCssRules=.*;image=data:image/svg+xml,PHN2ZyB2aWV3Qm94PSIwIDAgMjQgMjQiIHhtbG5zPSJodHRwOi8vd3d3LnczLm9yZy8yMDAwL3N2ZyI+PHN0eWxlPip7ZmlsbDojRjdERjFFfTwvc3R5bGU+PHBhdGggZD0iTTAgMGgyNHYyNEgwVjB6bTIyLjAzNCAxOC4yNzZjLS4xNzUtMS4wOTUtLjg4OC0yLjAxNS0zLjAwMy0yLjg3My0uNzM2LS4zNDUtMS41NTQtLjU4NS0xLjc5Ny0xLjE0LS4wOTEtLjMzLS4xMDUtLjUxLS4wNDYtLjcwNS4xNS0uNjQ2LjkxNS0uODQgMS41MTUtLjY2LjM5LjEyLjc1LjQyLjk3Ni45IDEuMDM0LS42NzYgMS4wMzQtLjY3NiAxLjc1NS0xLjEyNS0uMjctLjQyLS40MDQtLjYwMS0uNTg2LS43OC0uNjMtLjcwNS0xLjQ2OS0xLjA2NS0yLjgzNC0xLjAzNGwtLjcwNS4wODljLS42NzYuMTY1LTEuMzIuNTI1LTEuNzEgMS4wMDUtMS4xNCAxLjI5MS0uODExIDMuNTQxLjU2OSA0LjQ3MSAxLjM2NSAxLjAyIDMuMzYxIDEuMjQ0IDMuNjE2IDIuMjA1LjI0IDEuMTctLjg3IDEuNTQ1LTEuOTY2IDEuNDEtLjgxMS0uMTgtMS4yNi0uNTg2LTEuNzU1LTEuMzM2bC0xLjgzIDEuMDUxYy4yMS40OC40NS42ODkuODEgMS4xMDkgMS43NCAxLjc1NiA2LjA5IDEuNjY2IDYuODcxLTEuMDA0LjAyOS0uMDkuMjQtLjcwNS4wNzQtMS42NWwuMDQ2LjA2N3ptLTguOTgzLTcuMjQ1aC0yLjI0OGMwIDEuOTM4LS4wMDkgMy44NjQtLjAwOSA1LjgwNSAwIDEuMjMyLjA2MyAyLjM2My0uMTM4IDIuNzExLS4zMy42ODktMS4xOC42MDEtMS41NjYuNDgtLjM5Ni0uMTk2LS41OTctLjQ2Ni0uODMtLjg1NS0uMDYzLS4xMDUtLjExLS4xOTYtLjEyNy0uMTk2bC0xLjgyNSAxLjEyNWMuMzA1LjYzLjc1IDEuMTcyIDEuMzI0IDEuNTE3Ljg1NS41MSAyLjAwNC42NzUgMy4yMDcuNDA1Ljc4My0uMjI2IDEuNDU4LS42OTEgMS44MTEtMS40MTEuNTEtLjkzLjQwMi0yLjA3LjM5Ny0zLjM0Ni4wMTItMi4wNTQgMC00LjEwOSAwLTYuMTc5bC4wMDQtLjA1NnoiLz48L3N2Zz4=;" vertex="1" parent="1">
          <mxGeometry x="860" y="143" width="50" height="50" as="geometry" />
        </mxCell>
        <mxCell id="vfO6iKDOlkKke8TdpdNu-48" style="shape=image;editableCssRules=.*;image=data:image/svg+xml,PHN2ZyB2aWV3Qm94PSIwIDAgMjQgMjQiIHhtbG5zPSJodHRwOi8vd3d3LnczLm9yZy8yMDAwL3N2ZyI+PHN0eWxlPip7ZmlsbDojMzc3NkFCfTwvc3R5bGU+PHBhdGggZD0iTTE0LjI1LjE4bC45LjIuNzMuMjYuNTkuMy40NS4zMi4zNC4zNC4yNS4zNC4xNi4zMy4xLjMuMDQuMjYuMDIuMi0uMDEuMTNWOC41bC0uMDUuNjMtLjEzLjU1LS4yMS40Ni0uMjYuMzgtLjMuMzEtLjMzLjI1LS4zNS4xOS0uMzUuMTQtLjMzLjEtLjMuMDctLjI2LjA0LS4yMS4wMkg4Ljc3bC0uNjkuMDUtLjU5LjE0LS41LjIyLS40MS4yNy0uMzMuMzItLjI3LjM1LS4yLjM2LS4xNS4zNy0uMS4zNS0uMDcuMzItLjA0LjI3LS4wMi4yMXYzLjA2SDMuMTdsLS4yMS0uMDMtLjI4LS4wNy0uMzItLjEyLS4zNS0uMTgtLjM2LS4yNi0uMzYtLjM2LS4zNS0uNDYtLjMyLS41OS0uMjgtLjczLS4yMS0uODgtLjE0LTEuMDUtLjA1LTEuMjMuMDYtMS4yMi4xNi0xLjA0LjI0LS44Ny4zMi0uNzEuMzYtLjU3LjQtLjQ0LjQyLS4zMy40Mi0uMjQuNC0uMTYuMzYtLjEuMzItLjA1LjI0LS4wMWguMTZsLjA2LjAxaDguMTZ2LS44M0g2LjE4bC0uMDEtMi43NS0uMDItLjM3LjA1LS4zNC4xMS0uMzEuMTctLjI4LjI1LS4yNi4zMS0uMjMuMzgtLjIuNDQtLjE4LjUxLS4xNS41OC0uMTIuNjQtLjEuNzEtLjA2Ljc3LS4wNC44NC0uMDIgMS4yNy4wNXptLTYuMyAxLjk4bC0uMjMuMzMtLjA4LjQxLjA4LjQxLjIzLjM0LjMzLjIyLjQxLjA5LjQxLS4wOS4zMy0uMjIuMjMtLjM0LjA4LS40MS0uMDgtLjQxLS4yMy0uMzMtLjMzLS4yMi0uNDEtLjA5LS40MS4wOXptMTMuMDkgMy45NWwuMjguMDYuMzIuMTIuMzUuMTguMzYuMjcuMzYuMzUuMzUuNDcuMzIuNTkuMjguNzMuMjEuODguMTQgMS4wNC4wNSAxLjIzLS4wNiAxLjIzLS4xNiAxLjA0LS4yNC44Ni0uMzIuNzEtLjM2LjU3LS40LjQ1LS40Mi4zMy0uNDIuMjQtLjQuMTYtLjM2LjA5LS4zMi4wNS0uMjQuMDItLjE2LS4wMWgtOC4yMnYuODJoNS44NGwuMDEgMi43Ni4wMi4zNi0uMDUuMzQtLjExLjMxLS4xNy4yOS0uMjUuMjUtLjMxLjI0LS4zOC4yLS40NC4xNy0uNTEuMTUtLjU4LjEzLS42NC4wOS0uNzEuMDctLjc3LjA0LS44NC4wMS0xLjI3LS4wNC0xLjA3LS4xNC0uOS0uMi0uNzMtLjI1LS41OS0uMy0uNDUtLjMzLS4zNC0uMzQtLjI1LS4zNC0uMTYtLjMzLS4xLS4zLS4wNC0uMjUtLjAyLS4yLjAxLS4xM3YtNS4zNGwuMDUtLjY0LjEzLS41NC4yMS0uNDYuMjYtLjM4LjMtLjMyLjMzLS4yNC4zNS0uMi4zNS0uMTQuMzMtLjEuMy0uMDYuMjYtLjA0LjIxLS4wMi4xMy0uMDFoNS44NGwuNjktLjA1LjU5LS4xNC41LS4yMS40MS0uMjguMzMtLjMyLjI3LS4zNS4yLS4zNi4xNS0uMzYuMS0uMzUuMDctLjMyLjA0LS4yOC4wMi0uMjFWNi4wN2gyLjA5bC4xNC4wMXptLTYuNDcgMTQuMjVsLS4yMy4zMy0uMDguNDEuMDguNDEuMjMuMzMuMzMuMjMuNDEuMDguNDEtLjA4LjMzLS4yMy4yMy0uMzMuMDgtLjQxLS4wOC0uNDEtLjIzLS4zMy0uMzMtLjIzLS40MS0uMDgtLjQxLjA4eiIvPjwvc3ZnPg==;" vertex="1" parent="1">
          <mxGeometry x="786" y="290" width="50" height="50" as="geometry" />
        </mxCell>
        <mxCell id="vfO6iKDOlkKke8TdpdNu-49" style="shape=image;editableCssRules=.*;image=data:image/svg+xml,PHN2ZyB2aWV3Qm94PSIwIDAgMjQgMjQiIHhtbG5zPSJodHRwOi8vd3d3LnczLm9yZy8yMDAwL3N2ZyI+PHN0eWxlPip7ZmlsbDojODVFQTJEfTwvc3R5bGU+PHBhdGggZD0iTTEyIDBDNS4zODMgMCAwIDUuMzgzIDAgMTJzNS4zODMgMTIgMTIgMTJjNi42MTYgMCAxMi01LjM4MyAxMi0xMlMxOC42MTYgMCAxMiAwem0wIDEuMTQ0YzUuOTk1IDAgMTAuODU2IDQuODYgMTAuODU2IDEwLjg1NiAwIDUuOTk1LTQuODYgMTAuODU2LTEwLjg1NiAxMC44NTYtNS45OTYgMC0xMC44NTYtNC44Ni0xMC44NTYtMTAuODU2QzEuMTQ0IDYuMDA0IDYuMDA0IDEuMTQ0IDEyIDEuMTQ0ek04LjM3IDUuODY4YTYuNzA3IDYuNzA3IDAgMCAwLS40MjMuMDA1Yy0uOTgzLjA1Ni0xLjU3My41MTctMS43MzUgMS40NzItLjExNS42NjUtLjA5NiAxLjM0OC0uMTQzIDIuMDE3LS4wMTMuMzUtLjA1LjY5Ny0uMTE1IDEuMDM4LS4xMzQuNjA5LS4zOTcuNzk4LTEuMDE2LjgzYTIuNjUgMi42NSAwIDAgMC0uMjQ0LjA0MnYxLjQ2M2MxLjEyNi4wNTUgMS4yNzguNDUyIDEuMzcgMS42MjkuMDMzLjQyOS0uMDEzLjg1OC4wMTUgMS4yODcuMDE4LjQwNi4wNzMuODA4LjE1NiAxLjIuMjU5IDEuMDc1IDEuMzA3IDEuNDM1IDIuNTc1IDEuMjE4di0xLjI4M2MtLjIwMyAwLS4zODMuMDA1LS41NTggMC0uNDMtLjAxMy0uNTkxLS4xMi0uNjMyLS41MzUtLjA1Ni0uNTM1LS4wNDItMS4wOC0uMDc1LTEuNjItLjA2NC0xLjAwMS0uMTc1LTEuOTg4LTEuMTUzLTIuNjI1LjUwMy0uMzcuODY4LS44MTIuOTgzLTEuMzk4LjA4My0uNDEuMTM0LS44MjEuMTY2LTEuMjM3LjAyOC0uNDE1LS4wMjMtLjg0LjAxNC0xLjI1LjA2LS42NjUuMTAyLS45MzcuOS0uOTEuMTIgMCAuMjM1LS4wMTcuMzY5LS4wMjd2LTEuMzFjLS4xNiAwLS4zMS0uMDA0LS40NTQtLjAwNnptNy41OTMuMDA5YTQuMjQ3IDQuMjQ3IDAgMCAwLS44MTMuMDZ2MS4yNzRjLjI0NSAwIC40MzQgMCAuNjIzLjAwNS4zMjguMDA0LjU3Ny4xMy42MS40OTQuMDMyLjMzMi4wMzEuNjY5LjA2NCAxLjAwNi4wNjUuNjY5LjEwMSAxLjM0Ny4yMTcgMi4wMDcuMTAyLjU0NC40NzUuOTUuOTQxIDEuMjgzLS44MTcuNTQ5LTEuMDU3IDEuMzMzLTEuMDk4IDIuMjE1LS4wMjMuNjA0LS4wMzcgMS4yMTMtLjA2OSAxLjgyMi0uMDI4LjU1NC0uMjIyLjczNC0uNzguNzQ4LS4xNTcuMDA0LS4zMS4wMTgtLjQ4NC4wMjh2MS4zMDVjLjMyNyAwIC42MjcuMDE5LjkyNyAwIC45MzItLjA1NSAxLjQ5NS0uNTA3IDEuNjgtMS40MTIuMDc4LS40OTguMTI0LTEgLjEzOC0xLjUwNC4wMzItLjQ2MS4wMjgtLjkyNy4wNzQtMS4zODQuMDY5LS43MTUuMzk3LTEuMDEgMS4xMTItMS4wNTdhLjk3Mi45NzIgMCAwIDAgLjE5OS0uMDQ2di0xLjQ2M2MtLjEyLS4wMTQtLjIwNC0uMDI3LS4yOTEtLjAzMi0uNTM2LS4wMjMtLjgwNC0uMjAzLS45MzctLjcxYTUuMTQ2IDUuMTQ2IDAgMCAxLS4xNTItLjk5M2MtLjAzNy0uNjE4LS4wMzMtMS4yNDEtLjA3NC0xLjg2LS4wOC0xLjE5Mi0uNzk0LTEuNzUzLTEuODg3LTEuNzg2em0tNi44OSA1LjI4YS44NDQuODQ0IDAgMCAwLS4wODMgMS42ODRoLjA1NWEuODMuODMgMCAwIDAgLjg3Ny0uNzh2LS4wNDZhLjg0NS44NDUgMCAwIDAtLjgzLS44NTh6bTIuOTExIDBhLjgwOC44MDggMCAwIDAtLjgzNC43OGMwIC4wMjcgMCAuMDUuMDA0LjA3OCAwIC41MDMuMzQyLjgyNi44NTkuODI2LjUwNyAwIC44MjYtLjMzMi44MjYtLjg1My0uMDA1LS41MDMtLjM0Mi0uODM2LS44NTUtLjgzMXptMi45NjMgMGEuODYxLjg2MSAwIDAgMC0uODc2LjgzNWMwIC40Ny4zNzguODQ5Ljg0OS44NDloLjAwOWMuNDI1LjA3NC44NTMtLjMzNy44ODEtLjgzLjAyMy0uNDU3LS4zOTItLjg1NC0uODYzLS44NTR6Ii8+PC9zdmc+;" vertex="1" parent="1">
          <mxGeometry x="850" y="290" width="50" height="50" as="geometry" />
        </mxCell>
        <mxCell id="vfO6iKDOlkKke8TdpdNu-51" style="shape=image;editableCssRules=.*;image=data:image/svg+xml,PHN2ZyB2aWV3Qm94PSIwIDAgMjQgMjQiIHhtbG5zPSJodHRwOi8vd3d3LnczLm9yZy8yMDAwL3N2ZyI+PHN0eWxlPip7ZmlsbDojRjdERjFFfTwvc3R5bGU+PHBhdGggZD0iTTAgMGgyNHYyNEgwVjB6bTIyLjAzNCAxOC4yNzZjLS4xNzUtMS4wOTUtLjg4OC0yLjAxNS0zLjAwMy0yLjg3My0uNzM2LS4zNDUtMS41NTQtLjU4NS0xLjc5Ny0xLjE0LS4wOTEtLjMzLS4xMDUtLjUxLS4wNDYtLjcwNS4xNS0uNjQ2LjkxNS0uODQgMS41MTUtLjY2LjM5LjEyLjc1LjQyLjk3Ni45IDEuMDM0LS42NzYgMS4wMzQtLjY3NiAxLjc1NS0xLjEyNS0uMjctLjQyLS40MDQtLjYwMS0uNTg2LS43OC0uNjMtLjcwNS0xLjQ2OS0xLjA2NS0yLjgzNC0xLjAzNGwtLjcwNS4wODljLS42NzYuMTY1LTEuMzIuNTI1LTEuNzEgMS4wMDUtMS4xNCAxLjI5MS0uODExIDMuNTQxLjU2OSA0LjQ3MSAxLjM2NSAxLjAyIDMuMzYxIDEuMjQ0IDMuNjE2IDIuMjA1LjI0IDEuMTctLjg3IDEuNTQ1LTEuOTY2IDEuNDEtLjgxMS0uMTgtMS4yNi0uNTg2LTEuNzU1LTEuMzM2bC0xLjgzIDEuMDUxYy4yMS40OC40NS42ODkuODEgMS4xMDkgMS43NCAxLjc1NiA2LjA5IDEuNjY2IDYuODcxLTEuMDA0LjAyOS0uMDkuMjQtLjcwNS4wNzQtMS42NWwuMDQ2LjA2N3ptLTguOTgzLTcuMjQ1aC0yLjI0OGMwIDEuOTM4LS4wMDkgMy44NjQtLjAwOSA1LjgwNSAwIDEuMjMyLjA2MyAyLjM2My0uMTM4IDIuNzExLS4zMy42ODktMS4xOC42MDEtMS41NjYuNDgtLjM5Ni0uMTk2LS41OTctLjQ2Ni0uODMtLjg1NS0uMDYzLS4xMDUtLjExLS4xOTYtLjEyNy0uMTk2bC0xLjgyNSAxLjEyNWMuMzA1LjYzLjc1IDEuMTcyIDEuMzI0IDEuNTE3Ljg1NS41MSAyLjAwNC42NzUgMy4yMDcuNDA1Ljc4My0uMjI2IDEuNDU4LS42OTEgMS44MTEtMS40MTEuNTEtLjkzLjQwMi0yLjA3LjM5Ny0zLjM0Ni4wMTItMi4wNTQgMC00LjEwOSAwLTYuMTc5bC4wMDQtLjA1NnoiLz48L3N2Zz4=;" vertex="1" parent="1">
          <mxGeometry x="700" y="540" width="50" height="50" as="geometry" />
        </mxCell>
        <mxCell id="vfO6iKDOlkKke8TdpdNu-42" style="shape=image;editableCssRules=.*;image=data:image/svg+xml,PHN2ZyB2aWV3Qm94PSIwIDAgMjQgMjQiIHhtbG5zPSJodHRwOi8vd3d3LnczLm9yZy8yMDAwL3N2ZyI+PHN0eWxlPip7ZmlsbDojNjFEQUZCfTwvc3R5bGU+PHBhdGggZD0iTTE0LjIzIDEyLjAwNGEyLjIzNiAyLjIzNiAwIDAgMS0yLjIzNSAyLjIzNiAyLjIzNiAyLjIzNiAwIDAgMS0yLjIzNi0yLjIzNiAyLjIzNiAyLjIzNiAwIDAgMSAyLjIzNS0yLjIzNiAyLjIzNiAyLjIzNiAwIDAgMSAyLjIzNiAyLjIzNnptMi42NDgtMTAuNjljLTEuMzQ2IDAtMy4xMDcuOTYtNC44ODggMi42MjItMS43OC0xLjY1My0zLjU0Mi0yLjYwMi00Ljg4Ny0yLjYwMi0uNDEgMC0uNzgzLjA5My0xLjEwNi4yNzgtMS4zNzUuNzkzLTEuNjgzIDMuMjY0LS45NzMgNi4zNjVDMS45OCA4LjkxNyAwIDEwLjQyIDAgMTIuMDA0YzAgMS41OSAxLjk5IDMuMDk3IDUuMDQzIDQuMDMtLjcwNCAzLjExMy0uMzkgNS41ODguOTg4IDYuMzguMzIuMTg3LjY5LjI3NSAxLjEwMi4yNzUgMS4zNDUgMCAzLjEwNy0uOTYgNC44ODgtMi42MjQgMS43OCAxLjY1NCAzLjU0MiAyLjYwMyA0Ljg4NyAyLjYwMy40MSAwIC43ODMtLjA5IDEuMTA2LS4yNzUgMS4zNzQtLjc5MiAxLjY4My0zLjI2My45NzMtNi4zNjVDMjIuMDIgMTUuMDk2IDI0IDEzLjU5IDI0IDEyLjAwNGMwLTEuNTktMS45OS0zLjA5Ny01LjA0My00LjAzMi43MDQtMy4xMS4zOS01LjU4Ny0uOTg4LTYuMzgtLjMxOC0uMTg0LS42ODgtLjI3Ny0xLjA5Mi0uMjc4em0tLjAwNSAxLjA5di4wMDZjLjIyNSAwIC40MDYuMDQ0LjU1OC4xMjcuNjY2LjM4Mi45NTUgMS44MzUuNzMgMy43MDQtLjA1NC40Ni0uMTQyLjk0NS0uMjUgMS40NC0uOTYtLjIzNi0yLjAwNi0uNDE3LTMuMTA3LS41MzQtLjY2LS45MDUtMS4zNDUtMS43MjctMi4wMzUtMi40NDcgMS41OTItMS40OCAzLjA4Ny0yLjI5MiA0LjEwNS0yLjI5NXptLTkuNzcuMDJjMS4wMTIgMCAyLjUxNC44MDggNC4xMSAyLjI4LS42ODYuNzItMS4zNyAxLjUzNy0yLjAyIDIuNDQyLTEuMTA3LjExNy0yLjE1NC4yOTgtMy4xMTMuNTM4LS4xMTItLjQ5LS4xOTUtLjk2NC0uMjU0LTEuNDItLjIzLTEuODY4LjA1NC0zLjMyLjcxNC0zLjcwNy4xOS0uMDkuNC0uMTI3LjU2My0uMTMyem00Ljg4MiAzLjA1Yy40NTUuNDY4LjkxLjk5MiAxLjM2IDEuNTY0LS40NC0uMDItLjg5LS4wMzQtMS4zNDUtLjAzNC0uNDYgMC0uOTE1LjAxLTEuMzYuMDM0LjQ0LS41NzIuODk1LTEuMDk2IDEuMzQ1LTEuNTY1ek0xMiA4LjFjLjc0IDAgMS40NzcuMDM0IDIuMjAyLjA5My40MDYuNTgyLjgwMiAxLjIwMyAxLjE4MyAxLjg2LjM3Mi42NC43MSAxLjI5IDEuMDE4IDEuOTQ2LS4zMDguNjU1LS42NDYgMS4zMS0xLjAxMyAxLjk1LS4zOC42Ni0uNzczIDEuMjg4LTEuMTggMS44Ny0uNzI4LjA2My0xLjQ2Ni4wOTgtMi4yMS4wOTgtLjc0IDAtMS40NzctLjAzNS0yLjIwMi0uMDkzLS40MDYtLjU4Mi0uODAyLTEuMjA0LTEuMTgzLTEuODYtLjM3Mi0uNjQtLjcxLTEuMjktMS4wMTgtMS45NDYuMzAzLS42NTcuNjQ2LTEuMzEzIDEuMDEzLTEuOTU0LjM4LS42Ni43NzMtMS4yODYgMS4xOC0xLjg2OC43MjgtLjA2NCAxLjQ2Ni0uMDk4IDIuMjEtLjA5OHptLTMuNjM1LjI1NGMtLjI0LjM3Ny0uNDguNzYzLS43MDQgMS4xNi0uMjI1LjM5LS40MzUuNzgyLS42MzUgMS4xNzQtLjI2NS0uNjU2LS40OS0xLjMxLS42NzYtMS45NDcuNjQtLjE1IDEuMzE1LS4yODMgMi4wMTUtLjM4NnptNy4yNiAwYy42OTUuMTAzIDEuMzY1LjIzIDIuMDA2LjM4Ny0uMTguNjMyLS40MDUgMS4yODItLjY2IDEuOTMzLS4yLS4zOS0uNDEtLjc4My0uNjQtMS4xNzQtLjIyNS0uMzkyLS40NjUtLjc3NC0uNzA1LTEuMTQ2em0zLjA2My42NzVjLjQ4NC4xNS45NDQuMzE3IDEuMzc1LjQ5OCAxLjczMi43NCAyLjg1MiAxLjcwOCAyLjg1MiAyLjQ3Ni0uMDA1Ljc2OC0xLjEyNSAxLjc0LTIuODU3IDIuNDc1LS40Mi4xOC0uODguMzQyLTEuMzU1LjQ5My0uMjgtLjk1OC0uNjQ2LTEuOTU2LTEuMS0yLjk4LjQ1LTEuMDE3LjgxLTIuMDEgMS4wODUtMi45NjR6bS0xMy4zOTUuMDA0Yy4yNzguOTYuNjQ1IDEuOTU3IDEuMSAyLjk4LS40NSAxLjAxNy0uODEyIDIuMDEtMS4wODYgMi45NjQtLjQ4NC0uMTUtLjk0NC0uMzE4LTEuMzctLjUtMS43MzItLjczNy0yLjg1Mi0xLjcwNi0yLjg1Mi0yLjQ3NCAwLS43NjggMS4xMi0xLjc0MiAyLjg1Mi0yLjQ3Ni40Mi0uMTguODgtLjM0MiAxLjM1Ni0uNDk0em0xMS42NzggNC4yOGMuMjY1LjY1Ny40OSAxLjMxMi42NzYgMS45NDgtLjY0LjE1Ny0xLjMxNi4yOS0yLjAxNi4zOS4yNC0uMzc1LjQ4LS43NjIuNzA1LTEuMTU4LjIyNS0uMzkuNDM1LS43ODguNjM2LTEuMTh6bS05Ljk0NS4wMmMuMi4zOTIuNDEuNzgzLjY0IDEuMTc1LjIzLjM5LjQ2NS43NzIuNzA1IDEuMTQzLS42OTUtLjEwMi0xLjM2NS0uMjMtMi4wMDYtLjM4Ni4xOC0uNjMuNDA2LTEuMjgyLjY2LTEuOTMzek0xNy45MiAxNi4zMmMuMTEyLjQ5My4yLjk2OC4yNTQgMS40MjMuMjMgMS44NjgtLjA1NCAzLjMyLS43MTQgMy43MDgtLjE0Ny4wOS0uMzM4LjEyOC0uNTYzLjEyOC0xLjAxMiAwLTIuNTE0LS44MDctNC4xMS0yLjI4LjY4Ni0uNzIgMS4zNy0xLjUzNiAyLjAyLTIuNDQgMS4xMDctLjExOCAyLjE1NC0uMyAzLjExMy0uNTR6bS0xMS44My4wMWMuOTYuMjM0IDIuMDA2LjQxNSAzLjEwNy41MzIuNjYuOTA1IDEuMzQ1IDEuNzI3IDIuMDM1IDIuNDQ2LTEuNTk1IDEuNDgzLTMuMDkyIDIuMjk1LTQuMTEgMi4yOTUtLjIyLS4wMDUtLjQwNi0uMDUtLjU1My0uMTMyLS42NjYtLjM4LS45NTUtMS44MzQtLjczLTMuNzAzLjA1NC0uNDYuMTQyLS45NDQuMjUtMS40Mzh6bTQuNTYuNjRjLjQ0LjAyLjg5LjAzNCAxLjM0NS4wMzQuNDYgMCAuOTE1LS4wMSAxLjM2LS4wMzQtLjQ0LjU3Mi0uODk1IDEuMDk1LTEuMzQ1IDEuNTY1LS40NTUtLjQ3LS45MS0uOTkzLTEuMzYtMS41NjV6Ii8+PC9zdmc+;" vertex="1" parent="1">
          <mxGeometry x="836" y="121" width="50" height="50" as="geometry" />
        </mxCell>
        <mxCell id="vfO6iKDOlkKke8TdpdNu-43" style="shape=image;editableCssRules=.*;image=data:image/svg+xml,PHN2ZyB2aWV3Qm94PSIwIDAgMjQgMjQiIHhtbG5zPSJodHRwOi8vd3d3LnczLm9yZy8yMDAwL3N2ZyI+PHN0eWxlPip7ZmlsbDojMDAwfTwvc3R5bGU+PHBhdGggZD0iTTE4LjY2NSAyMS45NzhDMTYuNzU4IDIzLjI1NSAxNC40NjUgMjQgMTIgMjQgNS4zNzcgMjQgMCAxOC42MjMgMCAxMlM1LjM3NyAwIDEyIDBzMTIgNS4zNzcgMTIgMTJjMCAzLjU4My0xLjU3NCA2LjgwMS00LjA2NyA5LjAwMUw5LjIxOSA3LjJINy4ydjkuNTk2aDEuNjE1VjkuMjUxbDkuODUgMTIuNzI3Wm0tMy4zMzItOC41MzMgMS42IDIuMDYxVjcuMmgtMS42djYuMjQ1WiIvPjwvc3ZnPg==;" vertex="1" parent="1">
          <mxGeometry x="676" y="519" width="50" height="50" as="geometry" />
        </mxCell>
        <mxCell id="vfO6iKDOlkKke8TdpdNu-47" style="shape=image;editableCssRules=.*;image=data:image/svg+xml,PHN2ZyB2aWV3Qm94PSIwIDAgMjQgMjQiIHhtbG5zPSJodHRwOi8vd3d3LnczLm9yZy8yMDAwL3N2ZyI+PHN0eWxlPip7ZmlsbDojMDA5Njg4fTwvc3R5bGU+PHBhdGggZD0iTTEyIC4wMzg3QzUuMzcyOS4wMzg0LjAwMDMgNS4zOTMxIDAgMTEuOTk4OGMtLjAwMSA2LjYwNjYgNS4zNzIgMTEuOTYyOCAxMiAxMS45NjI1IDYuNjI4LjAwMDMgMTIuMDAxLTUuMzU1OSAxMi0xMS45NjI1LS4wMDAzLTYuNjA1Ny01LjM3MjktMTEuOTYwNC0xMi0xMS45Nm0tLjgyOSA1LjQxNTNoNy41NWwtNy41ODA1IDUuMzI4NGg1LjE4MjhMNS4yNzkgMTguNTQzNnEyLjk0NjYtNi41NDQ0IDUuODkyLTEzLjA4OTYiLz48L3N2Zz4=;" vertex="1" parent="1">
          <mxGeometry x="818" y="290" width="50" height="50" as="geometry" />
        </mxCell>
        <mxCell id="vfO6iKDOlkKke8TdpdNu-53" style="shape=image;editableCssRules=.*;image=data:image/svg+xml,PHN2ZyB2aWV3Qm94PSIwIDAgMjQgMjQiIHhtbG5zPSJodHRwOi8vd3d3LnczLm9yZy8yMDAwL3N2ZyI+PHN0eWxlPip7ZmlsbDojMTgxNzE3fTwvc3R5bGU+PHBhdGggZD0iTTEyIC4yOTdjLTYuNjMgMC0xMiA1LjM3My0xMiAxMiAwIDUuMzAzIDMuNDM4IDkuOCA4LjIwNSAxMS4zODUuNi4xMTMuODItLjI1OC44Mi0uNTc3IDAtLjI4NS0uMDEtMS4wNC0uMDE1LTIuMDQtMy4zMzguNzI0LTQuMDQyLTEuNjEtNC4wNDItMS42MUM0LjQyMiAxOC4wNyAzLjYzMyAxNy43IDMuNjMzIDE3LjdjLTEuMDg3LS43NDQuMDg0LS43MjkuMDg0LS43MjkgMS4yMDUuMDg0IDEuODM4IDEuMjM2IDEuODM4IDEuMjM2IDEuMDcgMS44MzUgMi44MDkgMS4zMDUgMy40OTUuOTk4LjEwOC0uNzc2LjQxNy0xLjMwNS43Ni0xLjYwNS0yLjY2NS0uMy01LjQ2Ni0xLjMzMi01LjQ2Ni01LjkzIDAtMS4zMS40NjUtMi4zOCAxLjIzNS0zLjIyLS4xMzUtLjMwMy0uNTQtMS41MjMuMTA1LTMuMTc2IDAgMCAxLjAwNS0uMzIyIDMuMyAxLjIzLjk2LS4yNjcgMS45OC0uMzk5IDMtLjQwNSAxLjAyLjAwNiAyLjA0LjEzOCAzIC40MDUgMi4yOC0xLjU1MiAzLjI4NS0xLjIzIDMuMjg1LTEuMjMuNjQ1IDEuNjUzLjI0IDIuODczLjEyIDMuMTc2Ljc2NS44NCAxLjIzIDEuOTEgMS4yMyAzLjIyIDAgNC42MS0yLjgwNSA1LjYyNS01LjQ3NSA1LjkyLjQyLjM2LjgxIDEuMDk2LjgxIDIuMjIgMCAxLjYwNi0uMDE1IDIuODk2LS4wMTUgMy4yODYgMCAuMzE1LjIxLjY5LjgyNS41N0MyMC41NjUgMjIuMDkyIDI0IDE3LjU5MiAyNCAxMi4yOTdjMC02LjYyNy01LjM3My0xMi0xMi0xMiIvPjwvc3ZnPg==;" vertex="1" parent="1">
          <mxGeometry x="1070" y="123" width="50" height="50" as="geometry" />
        </mxCell>
        <mxCell id="vfO6iKDOlkKke8TdpdNu-54" style="shape=image;editableCssRules=.*;image=data:image/svg+xml,PHN2ZyB2aWV3Qm94PSIwIDAgMjQgMjQiIHhtbG5zPSJodHRwOi8vd3d3LnczLm9yZy8yMDAwL3N2ZyI+PHN0eWxlPip7ZmlsbDojMjA4OEZGfTwvc3R5bGU+PHBhdGggZD0iTTEwLjk4NCAxMy44MzZhLjUuNSAwIDAgMS0uMzUzLS4xNDZsLS43NDUtLjc0M2EuNS41IDAgMSAxIC43MDYtLjcwOGwuMzkyLjM5MSAxLjE4MS0xLjE4YS41LjUgMCAwIDEgLjcwOC43MDdsLTEuNTM1IDEuNTMzYS41MDQuNTA0IDAgMCAxLS4zNTQuMTQ2em05LjM1My0uMTQ3bDEuNTM0LTEuNTMyYS41LjUgMCAwIDAtLjcwNy0uNzA3bC0xLjE4MSAxLjE4LS4zOTItLjM5MWEuNS41IDAgMSAwLS43MDYuNzA4bC43NDYuNzQzYS40OTcuNDk3IDAgMCAwIC43MDYtLjAwMXpNNC41MjcgNy40NTJsMi41NTctMS41ODVBMSAxIDAgMCAwIDcuMDkgNC4xN0w0LjUzMyAyLjU2QTEgMSAwIDAgMCAzIDMuNDA2djMuMTk2YTEuMDAxIDEuMDAxIDAgMCAwIDEuNTI3Ljg1em0yLjAzLTIuNDM2TDQgNi42MDJWMy40MDZsMi41NTcgMS42MXpNMjQgMTIuNWMwIDEuOTMtMS41NyAzLjUtMy41IDMuNWEzLjUwMyAzLjUwMyAwIDAgMS0zLjQ2LTNoLTIuMDhhMy41MDMgMy41MDMgMCAwIDEtMy40NiAzIDMuNTAyIDMuNTAyIDAgMCAxLTMuNDYtM2gtLjU1OGMtLjk3MiAwLTEuODUtLjM5OS0yLjQ4Mi0xLjA0MlYxN2MwIDEuNjU0IDEuMzQ2IDMgMyAzaC4wNGMuMjQ0LTEuNjkzIDEuNy0zIDMuNDYtMyAxLjkzIDAgMy41IDEuNTcgMy41IDMuNVMxMy40MyAyNCAxMS41IDI0YTMuNTAyIDMuNTAyIDAgMCAxLTMuNDYtM0g4Yy0yLjIwNiAwLTQtMS43OTQtNC00VjkuODk5QTUuMDA4IDUuMDA4IDAgMCAxIDAgNWMwLTIuNzU3IDIuMjQzLTUgNS01czUgMi4yNDMgNSA1YTUuMDA1IDUuMDA1IDAgMCAxLTQuOTUyIDQuOTk4QTIuNDgyIDIuNDgyIDAgMCAwIDcuNDgyIDEyaC41NThjLjI0NC0xLjY5MyAxLjctMyAzLjQ2LTNhMy41MDIgMy41MDIgMCAwIDEgMy40NiAzaDIuMDhhMy41MDMgMy41MDMgMCAwIDEgMy40Ni0zYzEuOTMgMCAzLjUgMS41NyAzLjUgMy41em0tMTUgOGMwIDEuMzc4IDEuMTIyIDIuNSAyLjUgMi41czIuNS0xLjEyMiAyLjUtMi41LTEuMTIyLTIuNS0yLjUtMi41UzkgMTkuMTIyIDkgMjAuNXpNNSA5YzIuMjA2IDAgNC0xLjc5NCA0LTRTNy4yMDYgMSA1IDEgMSAyLjc5NCAxIDVzMS43OTQgNCA0IDR6bTkgMy41YzAtMS4zNzgtMS4xMjItMi41LTIuNS0yLjVTOSAxMS4xMjIgOSAxMi41czEuMTIyIDIuNSAyLjUgMi41IDIuNS0xLjEyMiAyLjUtMi41em05IDBjMC0xLjM3OC0xLjEyMi0yLjUtMi41LTIuNVMxOCAxMS4xMjIgMTggMTIuNXMxLjEyMiAyLjUgMi41IDIuNSAyLjUtMS4xMjIgMi41LTIuNXptLTEzIDhhLjUuNSAwIDEgMCAxIDAgLjUuNSAwIDAgMC0xIDB6bTIgMGEuNS41IDAgMSAwIDEgMCAuNS41IDAgMCAwLTEgMHptMTIgMGMwIDEuOTMtMS41NyAzLjUtMy41IDMuNWEzLjUwMyAzLjUwMyAwIDAgMS0zLjQ2LTMuMDAyYy0uMDA3LjAwMS0uMDEzLjAwNS0uMDIxLjAwNWwtLjUwNi4wMTdoLS4wMTdhLjUuNSAwIDAgMS0uMDE2LS45OTlsLjUwNi0uMDE3Yy4wMTgtLjAwMi4wMzUuMDA2LjA1Mi4wMDdBMy41MDMgMy41MDMgMCAwIDEgMjAuNSAxN2MxLjkzIDAgMy41IDEuNTcgMy41IDMuNXptLTEgMGMwLTEuMzc4LTEuMTIyLTIuNS0yLjUtMi41UzE4IDE5LjEyMiAxOCAyMC41czEuMTIyIDIuNSAyLjUgMi41IDIuNS0xLjEyMiAyLjUtMi41eiIvPjwvc3ZnPg==;" vertex="1" parent="1">
          <mxGeometry x="1090" y="143" width="50" height="50" as="geometry" />
        </mxCell>
        <mxCell id="vfO6iKDOlkKke8TdpdNu-56" style="edgeStyle=elbowEdgeStyle;rounded=0;orthogonalLoop=1;jettySize=auto;html=1;exitX=0;exitY=0.5;exitDx=0;exitDy=0;entryX=1;entryY=0.5;entryDx=0;entryDy=0;" edge="1" parent="1" source="vfO6iKDOlkKke8TdpdNu-54" target="vfO6iKDOlkKke8TdpdNu-50">
          <mxGeometry relative="1" as="geometry">
            <mxPoint x="970.54" y="213" as="sourcePoint" />
            <mxPoint x="970.0015384615385" y="115" as="targetPoint" />
          </mxGeometry>
        </mxCell>
        <mxCell id="vfO6iKDOlkKke8TdpdNu-57" style="shape=image;editableCssRules=.*;image=data:image/svg+xml,PHN2ZyB2aWV3Qm94PSIwIDAgMjQgMjQiIHhtbG5zPSJodHRwOi8vd3d3LnczLm9yZy8yMDAwL3N2ZyI+PHN0eWxlPip7ZmlsbDojNjQ2Q0ZGfTwvc3R5bGU+PHBhdGggZD0ibTguMjg2IDEwLjU3OC41MTItOC42NTdhLjMwNi4zMDYgMCAwIDEgLjI0Ny0uMjgyTDE3LjM3Ny4wMDZhLjMwNi4zMDYgMCAwIDEgLjM1My4zODVsLTEuNTU4IDUuNDAzYS4zMDYuMzA2IDAgMCAwIC4zNTIuMzg1bDIuMzg4LS40NmEuMzA2LjMwNiAwIDAgMSAuMzMyLjQzOGwtNi43OSAxMy41NS0uMTIzLjE5YS4yOTQuMjk0IDAgMCAxLS4yNTIuMTRjLS4xNzcgMC0uMzUtLjE1Mi0uMzA1LS4zNjlsMS4wOTUtNS4zMDFhLjMwNi4zMDYgMCAwIDAtLjM4OC0uMzU1bC0xLjQzMy40MzVhLjMwNi4zMDYgMCAwIDEtLjM4OS0uMzU0bC42OS0zLjM3NWEuMzA2LjMwNiAwIDAgMC0uMzctLjM2bC0yLjMyLjUzNmEuMzA2LjMwNiAwIDAgMS0uMzc0LS4zMTZ6bTE0Ljk3Ni03LjkyNkwxNy4yODQgMy43NGwtLjU0NCAxLjg4NyAyLjA3Ny0uNGEuOC44IDAgMCAxIC44NC4zNjkuOC44IDAgMCAxIC4wMzQuNzgzTDEyLjkgMTkuOTNsLS4wMTMuMDI1LS4wMTUuMDIzLS4xMjIuMTlhLjgwMS44MDEgMCAwIDEtLjY3Mi4zNy44MjYuODI2IDAgMCAxLS42MzQtLjMwMi44LjggMCAwIDEtLjE2LS42N2wxLjAyOS00Ljk4MS0xLjEyLjM0YS44MS44MSAwIDAgMS0uODYtLjI2Mi44MDIuODAyIDAgMCAxLS4xNjUtLjY3bC42My0zLjA4LTIuMDI3LjQ2OGEuODA4LjgwOCAwIDAgMS0uNzY4LS4yMzMuODEuODEgMCAwIDEtLjIxNy0uNmwuMzg5LTYuNTctNy40NC0xLjMzYS42MTIuNjEyIDAgMCAwLS42NC45MDZMMTEuNTggMjMuNjkxYS42MTIuNjEyIDAgMCAwIDEuMDY2LS4wMDRsMTEuMjYtMjAuMTM1YS42MTIuNjEyIDAgMCAwLS42NDQtLjl6Ii8+PC9zdmc+;" vertex="1" parent="1">
          <mxGeometry x="1020" y="100" width="50" height="50" as="geometry" />
        </mxCell>
        <mxCell id="vfO6iKDOlkKke8TdpdNu-58" value="&lt;div&gt;GitHub Actionsにて&lt;br&gt;&lt;/div&gt;Viteで&lt;span style=&quot;background-color: initial;&quot;&gt;ビルド+&lt;/span&gt;&lt;span style=&quot;background-color: initial;&quot;&gt;S3に転送&lt;/span&gt;" style="text;html=1;align=center;verticalAlign=middle;whiteSpace=wrap;rounded=0;" vertex="1" parent="1">
          <mxGeometry x="958" y="173" width="142" height="30" as="geometry" />
        </mxCell>
        <mxCell id="vfO6iKDOlkKke8TdpdNu-60" style="edgeStyle=elbowEdgeStyle;rounded=0;orthogonalLoop=1;jettySize=auto;html=1;exitX=0.5;exitY=0;exitDx=0;exitDy=0;entryX=1;entryY=0.5;entryDx=0;entryDy=0;" edge="1" parent="1" source="vfO6iKDOlkKke8TdpdNu-44" target="vfO6iKDOlkKke8TdpdNu-51">
          <mxGeometry relative="1" as="geometry">
            <mxPoint x="380" y="743.0769230769238" as="sourcePoint" />
            <mxPoint x="500" y="743.0769230769238" as="targetPoint" />
            <Array as="points">
              <mxPoint x="780" y="630" />
            </Array>
          </mxGeometry>
        </mxCell>
        <mxCell id="vfO6iKDOlkKke8TdpdNu-61" value="&lt;div&gt;GitHubからAmplify.ymlで&lt;/div&gt;&lt;div&gt;デプロイ&lt;/div&gt;" style="text;html=1;align=center;verticalAlign=middle;whiteSpace=wrap;rounded=0;" vertex="1" parent="1">
          <mxGeometry x="534" y="699" width="142" height="30" as="geometry" />
        </mxCell>
        <mxCell id="vfO6iKDOlkKke8TdpdNu-45" style="shape=image;editableCssRules=.*;image=data:image/svg+xml,PHN2ZyB2aWV3Qm94PSIwIDAgMjQgMjQiIHhtbG5zPSJodHRwOi8vd3d3LnczLm9yZy8yMDAwL3N2ZyI+PHN0eWxlPip7ZmlsbDojMjA4OEZGfTwvc3R5bGU+PHBhdGggZD0iTTEwLjk4NCAxMy44MzZhLjUuNSAwIDAgMS0uMzUzLS4xNDZsLS43NDUtLjc0M2EuNS41IDAgMSAxIC43MDYtLjcwOGwuMzkyLjM5MSAxLjE4MS0xLjE4YS41LjUgMCAwIDEgLjcwOC43MDdsLTEuNTM1IDEuNTMzYS41MDQuNTA0IDAgMCAxLS4zNTQuMTQ2em05LjM1My0uMTQ3bDEuNTM0LTEuNTMyYS41LjUgMCAwIDAtLjcwNy0uNzA3bC0xLjE4MSAxLjE4LS4zOTItLjM5MWEuNS41IDAgMSAwLS43MDYuNzA4bC43NDYuNzQzYS40OTcuNDk3IDAgMCAwIC43MDYtLjAwMXpNNC41MjcgNy40NTJsMi41NTctMS41ODVBMSAxIDAgMCAwIDcuMDkgNC4xN0w0LjUzMyAyLjU2QTEgMSAwIDAgMCAzIDMuNDA2djMuMTk2YTEuMDAxIDEuMDAxIDAgMCAwIDEuNTI3Ljg1em0yLjAzLTIuNDM2TDQgNi42MDJWMy40MDZsMi41NTcgMS42MXpNMjQgMTIuNWMwIDEuOTMtMS41NyAzLjUtMy41IDMuNWEzLjUwMyAzLjUwMyAwIDAgMS0zLjQ2LTNoLTIuMDhhMy41MDMgMy41MDMgMCAwIDEtMy40NiAzIDMuNTAyIDMuNTAyIDAgMCAxLTMuNDYtM2gtLjU1OGMtLjk3MiAwLTEuODUtLjM5OS0yLjQ4Mi0xLjA0MlYxN2MwIDEuNjU0IDEuMzQ2IDMgMyAzaC4wNGMuMjQ0LTEuNjkzIDEuNy0zIDMuNDYtMyAxLjkzIDAgMy41IDEuNTcgMy41IDMuNVMxMy40MyAyNCAxMS41IDI0YTMuNTAyIDMuNTAyIDAgMCAxLTMuNDYtM0g4Yy0yLjIwNiAwLTQtMS43OTQtNC00VjkuODk5QTUuMDA4IDUuMDA4IDAgMCAxIDAgNWMwLTIuNzU3IDIuMjQzLTUgNS01czUgMi4yNDMgNSA1YTUuMDA1IDUuMDA1IDAgMCAxLTQuOTUyIDQuOTk4QTIuNDgyIDIuNDgyIDAgMCAwIDcuNDgyIDEyaC41NThjLjI0NC0xLjY5MyAxLjctMyAzLjQ2LTNhMy41MDIgMy41MDIgMCAwIDEgMy40NiAzaDIuMDhhMy41MDMgMy41MDMgMCAwIDEgMy40Ni0zYzEuOTMgMCAzLjUgMS41NyAzLjUgMy41em0tMTUgOGMwIDEuMzc4IDEuMTIyIDIuNSAyLjUgMi41czIuNS0xLjEyMiAyLjUtMi41LTEuMTIyLTIuNS0yLjUtMi41UzkgMTkuMTIyIDkgMjAuNXpNNSA5YzIuMjA2IDAgNC0xLjc5NCA0LTRTNy4yMDYgMSA1IDEgMSAyLjc5NCAxIDVzMS43OTQgNCA0IDR6bTkgMy41YzAtMS4zNzgtMS4xMjItMi41LTIuNS0yLjVTOSAxMS4xMjIgOSAxMi41czEuMTIyIDIuNSAyLjUgMi41IDIuNS0xLjEyMiAyLjUtMi41em05IDBjMC0xLjM3OC0xLjEyMi0yLjUtMi41LTIuNVMxOCAxMS4xMjIgMTggMTIuNXMxLjEyMiAyLjUgMi41IDIuNSAyLjUtMS4xMjIgMi41LTIuNXptLTEzIDhhLjUuNSAwIDEgMCAxIDAgLjUuNSAwIDAgMC0xIDB6bTIgMGEuNS41IDAgMSAwIDEgMCAuNS41IDAgMCAwLTEgMHptMTIgMGMwIDEuOTMtMS41NyAzLjUtMy41IDMuNWEzLjUwMyAzLjUwMyAwIDAgMS0zLjQ2LTMuMDAyYy0uMDA3LjAwMS0uMDEzLjAwNS0uMDIxLjAwNWwtLjUwNi4wMTdoLS4wMTdhLjUuNSAwIDAgMS0uMDE2LS45OTlsLjUwNi0uMDE3Yy4wMTgtLjAwMi4wMzUuMDA2LjA1Mi4wMDdBMy41MDMgMy41MDMgMCAwIDEgMjAuNSAxN2MxLjkzIDAgMy41IDEuNTcgMy41IDMuNXptLTEgMGMwLTEuMzc4LTEuMTIyLTIuNS0yLjUtMi41UzE4IDE5LjEyMiAxOCAyMC41czEuMTIyIDIuNSAyLjUgMi41IDIuNS0xLjEyMiAyLjUtMi41eiIvPjwvc3ZnPg==;" vertex="1" parent="1">
          <mxGeometry x="736" y="709" width="50" height="50" as="geometry" />
        </mxCell>
        <mxCell id="vfO6iKDOlkKke8TdpdNu-64" value="&lt;div&gt;GitHub Actionsから&lt;/div&gt;&lt;div&gt;SAMを使ってデプロイ&lt;/div&gt;" style="text;html=1;align=center;verticalAlign=middle;whiteSpace=wrap;rounded=0;" vertex="1" parent="1">
          <mxGeometry x="750" y="780" width="142" height="30" as="geometry" />
        </mxCell>
        <mxCell id="vfO6iKDOlkKke8TdpdNu-65" style="edgeStyle=elbowEdgeStyle;rounded=0;orthogonalLoop=1;jettySize=auto;html=1;exitX=1;exitY=0.5;exitDx=0;exitDy=0;" edge="1" parent="1" source="vfO6iKDOlkKke8TdpdNu-45" target="vfO6iKDOlkKke8TdpdNu-46">
          <mxGeometry relative="1" as="geometry">
            <mxPoint x="846" y="368" as="sourcePoint" />
            <mxPoint x="930" y="368" as="targetPoint" />
          </mxGeometry>
        </mxCell>
        <mxCell id="vfO6iKDOlkKke8TdpdNu-66" style="edgeStyle=elbowEdgeStyle;rounded=0;orthogonalLoop=1;jettySize=auto;html=1;entryX=0.25;entryY=1;entryDx=0;entryDy=0;" edge="1" parent="1" source="vfO6iKDOlkKke8TdpdNu-46" target="vfO6iKDOlkKke8TdpdNu-49">
          <mxGeometry relative="1" as="geometry">
            <mxPoint x="712" y="709" as="sourcePoint" />
            <mxPoint x="760" y="575" as="targetPoint" />
            <Array as="points">
              <mxPoint x="863" y="540" />
            </Array>
          </mxGeometry>
        </mxCell>
        <mxCell id="vfO6iKDOlkKke8TdpdNu-67" value="Nextjs" style="text;html=1;align=center;verticalAlign=middle;whiteSpace=wrap;rounded=0;" vertex="1" parent="1">
          <mxGeometry x="695" y="500" width="60" height="30" as="geometry" />
        </mxCell>
        <mxCell id="vfO6iKDOlkKke8TdpdNu-68" value="JS React" style="text;html=1;align=center;verticalAlign=middle;whiteSpace=wrap;rounded=0;" vertex="1" parent="1">
          <mxGeometry x="868" y="109" width="60" height="30" as="geometry" />
        </mxCell>
        <mxCell id="vfO6iKDOlkKke8TdpdNu-69" value="FastAPI" style="text;html=1;align=center;verticalAlign=middle;whiteSpace=wrap;rounded=0;" vertex="1" parent="1">
          <mxGeometry x="840" y="271" width="60" height="30" as="geometry" />
        </mxCell>
      </root>
    </mxGraphModel>
  </diagram>
</mxfile>
